<svg width="1113" height="1113" xmlns="http://www.w3.org/2000/svg" xmlns:xlink="http://www.w3.org/1999/xlink" xml:space="preserve" overflow="hidden">
  <style>
    .icon { fill: #000000; }
    @media (prefers-color-scheme: dark) { .icon { fill: #ffffff; } }
  </style>
  <g transform="translate(-1297 -834)">
    <path class="icon" d="M1907.89 1659.48C1890.42 1659.48 1876.27 1673.64 1876.27 1691.1 1876.27 1708.56 1890.42 1722.72 1907.89 1722.72L2197.73 1722.72C2215.2 1722.72 2229.35 1708.56 2229.35 1691.1 2229.35 1673.64 2215.2 1659.48 2197.73 1659.48ZM1553.72 1249.36C1545.62 1249.36 1537.53 1252.44 1531.36 1258.62 1519.01 1270.97 1519.01 1290.99 1531.36 1303.34L1716.21 1488.19 1531.36 1673.04C1522.1 1682.3 1519.78 1695.88 1524.41 1707.3L1531.36 1717.76 1541.82 1724.7C1553.24 1729.34 1566.81 1727.02 1576.07 1717.76L1781.03 1512.81C1787.2 1506.63 1790.29 1498.54 1790.29 1490.45L1789.85 1488.19 1790.29 1485.93C1790.29 1477.84 1787.2 1469.74 1781.03 1463.57L1576.07 1258.62C1569.9 1252.44 1561.81 1249.36 1553.72 1249.36ZM1300 1077.47 2409 1077.47 2409 1790.96C2409 1875.48 2340.48 1944 2255.96 1944L1453.04 1944C1368.52 1944 1300 1875.48 1300 1790.96ZM1453.04 835 2255.96 835C2340.48 835 2409 903.519 2409 988.042L2409 1021.82 1300 1021.82 1300 988.042C1300 903.519 1368.52 835 1453.04 835Z" fill-rule="evenodd"/>
  </g>
</svg>
